<?xml version="1.0" encoding="utf-8"?>
<!-- Generator: Adobe Illustrator 16.0.0, SVG Export Plug-In . SVG Version: 6.00 Build 0)  -->
<!DOCTYPE svg PUBLIC "-//W3C//DTD SVG 1.1//EN" "http://www.w3.org/Graphics/SVG/1.1/DTD/svg11.dtd">
<svg version="1.1" id="Layer_1" xmlns="http://www.w3.org/2000/svg" xmlns:xlink="http://www.w3.org/1999/xlink" x="0px" y="0px"
	 width="1780px" height="850px" viewBox="0 0 1780 850" enable-background="new 0 0 1780 850" xml:space="preserve">
<linearGradient id="sky_x2F_space_2_" gradientUnits="userSpaceOnUse" x1="906.1016" y1="613.0625" x2="860.0305" y2="1478.8612" gradientTransform="matrix(1 0 0 -1 0.04 1483.2148)">
	<stop  offset="0" style="stop-color:#F3C187"/>
	<stop  offset="0.0527" style="stop-color:#F4AA8D"/>
	<stop  offset="0.1186" style="stop-color:#DF7D66"/>
	<stop  offset="0.3059" style="stop-color:#4E5763"/>
	<stop  offset="0.5913" style="stop-color:#0C3C4C"/>
	<stop  offset="1" style="stop-color:#0E1C22"/>
</linearGradient>
<rect id="sky_x2F_space_1_" x="-24.138" y="-17.4" fill="url(#sky_x2F_space_2_)" width="1807.101" height="770.5"/>
<linearGradient id="river_2_" gradientUnits="userSpaceOnUse" x1="861.1216" y1="935.7461" x2="1004.4863" y2="429.9119" gradientTransform="matrix(1 0 0 -1 0.04 1483.2148)">
	<stop  offset="0.0788" style="stop-color:#C5817E"/>
	<stop  offset="0.3645" style="stop-color:#57606D"/>
	<stop  offset="0.6989" style="stop-color:#33434C"/>
	<stop  offset="1" style="stop-color:#2D3A41"/>
</linearGradient>
<polygon id="river_1_" fill="url(#river_2_)" points="1782.963,898.9 391.663,898.9 90.163,899.3 257.263,809.6 391.663,727.7 
	1782.963,727.7 "/>
<path id="land-right3_1_" fill="#445763" d="M1545.863,709.6h-34.4l-50.9-1.1h-8.699l-19.101-1.1l-29.399-3.4l-20.9,4.5l-17.5-3.5
	l-18.199,4.1l-27.801-12l-32.899,7l-44.101,8.301l-46.6-2.301l-24.4,3l-11,7l-11.199-6.199l-48.4,3.899l-44.2-3.899l-41.6,8.899
	l-52.5,2.2l-58.8,3.8l-15.9,1l12.8,4.2l7,1l20.5,2.5l35.9,3.8l75.1,10.5l80.3-1.6l318.601-7.601c0,0,116.7,5,116.7-23.699
	L1545.863,709.6z"/>
<linearGradient id="SVGID_1_" gradientUnits="userSpaceOnUse" x1="1541.3896" y1="1056.8779" x2="1311.1382" y2="1361.0072" gradientTransform="matrix(1 0 0 1 0.04 -571.7852)">
	<stop  offset="0" style="stop-color:#F4B49C"/>
	<stop  offset="0.3648" style="stop-color:#5A576C"/>
	<stop  offset="0.9951" style="stop-color:#3D4E59"/>
</linearGradient>
<polygon fill="url(#SVGID_1_)" points="1779.763,683.2 1760.463,687.4 1752.162,683.4 1717.363,682.4 1670.563,690.7 
	1621.063,688.4 1595.162,691.4 1543.463,685.2 1488.662,697.6 1432.162,701.7 1381.063,699.7 1345.963,711.7 1296.463,713.7 
	1274.063,720.1 1233.463,724.5 1182.463,727.6 1152.263,733.8 1129.362,727.5 1107.063,733.8 1088.163,731.5 1065.862,733.8 
	1059.763,741.4 1015.862,745.2 998.862,750.8 979.463,756.7 974.263,758.6 904.463,766.4 936.063,768.2 1127.362,766.7 
	1155.563,772 1302.963,772 1599.162,768.4 1599.162,742.2 1780.162,729.8 "/>
<linearGradient id="SVGID_2_" gradientUnits="userSpaceOnUse" x1="1408.3779" y1="1094.6553" x2="1338.1799" y2="1758.8311" gradientTransform="matrix(1 0 0 1 0.04 -571.7852)">
	<stop  offset="0" style="stop-color:#F6D59B"/>
	<stop  offset="0.1469" style="stop-color:#BEA39B"/>
	<stop  offset="0.2595" style="stop-color:#676279"/>
	<stop  offset="0.4019" style="stop-color:#3A4C57"/>
	<stop  offset="1" style="stop-color:#3A4850"/>
</linearGradient>
<polygon fill="url(#SVGID_2_)" points="1756.963,678.2 1701.463,679.4 1672.563,688.2 1648.263,699.1 1632.063,699.2 1601.963,695 
	1571.863,709.7 1554.063,704.4 1533.863,713.7 1487.863,722.6 1471.662,725.7 1461.863,723.5 1461.863,722.5 1454.263,721.7 
	1451.963,721.2 1451.463,721.4 1433.563,719.4 1400.263,711.8 1385.363,716.4 1361.063,726.2 1345.963,738.8 1324.863,730.2 
	1308.662,730.4 1294.763,730.4 1278.463,726.2 1248.463,740.8 1230.663,735.6 1210.463,745 1188.463,749.2 1164.463,753.7 
	1148.263,757 1128.563,752.4 1113.663,758 1089.963,775.6 1065.862,785.2 1052.963,789.7 1037.263,789.7 1015.862,795.8 
	1000.963,796.4 981.362,806.8 971.063,806.8 961.263,811 1032.963,811.7 1021.763,816.2 1010.263,816.2 1000.663,819.7 
	985.563,821.5 1000.663,823.6 1018.963,827.6 1032.963,827.6 1046.563,827.6 1056.663,832.4 1078.663,838.4 1091.463,838.4 
	1102.463,838.4 1112.563,838.7 1116.063,839.2 1136.463,842.5 1149.963,845 1149.963,844.5 1178.463,848.8 1246.063,881.8 
	1276.263,877.9 1327.063,893.2 1380.162,897 1480.963,898.8 1785.263,900 1785.263,681.2 "/>
<path opacity="0.1" fill="#FFFFFF" enable-background="new    " d="M904.663,674.2l6.6-5.101h749c3.601,0,6.601,2.301,6.601,5.101
	l0,0c0,2.8-3,5.1-6.601,5.1h-749L904.663,674.2z"/>
<polygon opacity="0.1" fill="#FFFFFF" enable-background="new    " points="91.163,700.7 432.963,700.7 438.862,696.2 
	438.862,696.2 432.963,691.7 91.163,691.7 85.263,696.2 85.263,696.2 "/>
<polygon opacity="0.1" fill="#FFFFFF" enable-background="new    " points="787.163,645.8 1086.163,645.8 1094.463,640 
	1094.463,640 1086.163,634.1 787.163,634.1 778.763,640 778.763,640 "/>
<path opacity="0.1" fill="#FFFFFF" enable-background="new    " d="M1176.563,638.8h539.301c3.199,0,5.899-1.7,5.899-3.7l0,0
	c0-2-2.7-3.699-5.899-3.699h-539.301l-5.899,3.699l0,0L1176.563,638.8z"/>
<g id="stars_1_">
	
		<rect x="157.435" y="291.568" transform="matrix(-0.7071 -0.7072 0.7072 -0.7071 64.9653 614.8488)" fill="#575C7A" width="4.8" height="4.8"/>
	
		<rect x="301.234" y="234.566" transform="matrix(-0.7071 -0.7071 0.7071 -0.7071 350.3746 618.2612)" fill="#575C7A" width="4" height="4"/>
	
		<rect x="565.276" y="321.275" transform="matrix(-0.7072 -0.707 0.707 -0.7072 739.288 951.5194)" fill="#575C7A" width="2.8" height="2.8"/>
	
		<rect x="478.274" y="182.72" transform="matrix(-0.7072 -0.707 0.707 -0.7072 689.3032 654.9248)" fill="#575C7A" width="4.001" height="4"/>
	
		<rect x="440.145" y="268.662" transform="matrix(-0.7072 -0.7071 0.7071 -0.7072 563.8375 775.6508)" display="none" fill="#575C7A" width="4.8" height="4.801"/>
	
		<rect x="978.865" y="188.509" transform="matrix(-0.7072 -0.7071 0.7071 -0.7072 1540.192 1019.7209)" fill="#575C7A" width="4.8" height="4.8"/>
	
		<rect x="567.747" y="375.265" transform="matrix(-0.7072 -0.7071 0.7071 -0.7072 706.3013 1047.8599)" fill="#575C7A" width="4.8" height="4.8"/>
	
		<rect x="717.347" y="159.967" transform="matrix(-0.7071 -0.7071 0.7071 -0.7071 1113.4739 785.1491)" fill="#575C7A" width="4" height="4"/>
	
		<rect x="556.998" y="466.97" transform="matrix(-0.707 -0.7072 0.7072 -0.707 622.9539 1196.8276)" fill="#575C7A" width="4.8" height="4.799"/>
	
		<rect x="587.889" y="180.702" transform="matrix(-0.7071 -0.7071 0.7071 -0.7071 877.8129 729.0067)" fill="#575C7A" width="4" height="4"/>
	
		<rect x="453.67" y="401.008" transform="matrix(-0.7071 -0.7071 0.7071 -0.7071 493.3082 1011.1509)" fill="#575C7A" width="4.801" height="4.8"/>
	
		<rect x="628.931" y="295.078" transform="matrix(-0.7072 -0.7071 0.7071 -0.7072 867.4478 954.2291)" fill="#575C7A" width="4.8" height="4.8"/>
	
		<rect x="127.544" y="407.874" transform="matrix(-0.7071 -0.7072 0.7072 -0.7071 -68.3078 792.251)" display="none" fill="#575C7A" width="4.8" height="4.8"/>
	
		<rect x="229.825" y="258.391" transform="matrix(-0.7071 -0.7072 0.7072 -0.7071 212.0004 609.4034)" fill="#575C7A" width="4.8" height="4.8"/>
	
		<rect x="491.883" y="354.178" transform="matrix(-0.7072 -0.7071 0.7071 -0.7072 591.699 958.2201)" fill="#575C7A" width="4.8" height="4.8"/>
	
		<rect x="338.135" y="296.926" transform="matrix(-0.7072 -0.7071 0.7071 -0.7072 369.7072 751.7735)" fill="#575C7A" width="4.8" height="4.8"/>
	
		<rect x="101.463" y="453.292" transform="matrix(-0.7072 -0.707 0.707 -0.7072 -144.8605 851.3937)" fill="#575C7A" width="4.8" height="4.8"/>
	
		<rect x="432.93" y="367.414" transform="matrix(-0.7071 -0.7071 0.7071 -0.7071 481.6568 939.1372)" fill="#575C7A" width="4.801" height="4.8"/>
	
		<rect x="185.158" y="230.924" transform="matrix(-0.7072 -0.7071 0.7071 -0.7072 155.2192 530.9348)" fill="#575C7A" width="4.8" height="4.8"/>
	
		<rect x="128.275" y="180.604" transform="matrix(-0.7071 -0.7071 0.7071 -0.7071 93.272 403.842)" fill="#575C7A" width="4" height="4"/>
	
		<rect x="48.373" y="306.635" transform="matrix(-0.7072 -0.7071 0.7071 -0.7072 -131.8265 563.4706)" fill="#575C7A" width="4.8" height="4.8"/>
	
		<rect x="47.061" y="205.476" transform="matrix(-0.7072 -0.7071 0.7071 -0.7072 -62.5426 389.8495)" fill="#575C7A" width="4.8" height="4.8"/>
	
		<rect x="193.896" y="146.891" transform="matrix(-0.7071 -0.7071 0.7071 -0.7071 229.1328 392.6917)" fill="#575C7A" width="4" height="4"/>
	
		<rect x="296.255" y="260.412" transform="matrix(-0.707 -0.7072 0.7072 -0.707 323.9431 659.8334)" display="none" fill="#575C7A" width="4.8" height="4.8"/>
	
		<rect x="745.529" y="340.653" transform="matrix(-0.7071 -0.7071 0.7071 -0.7071 1034.2206 1114.4946)" fill="#575C7A" width="4.801" height="4.8"/>
	
		<rect x="368.167" y="423.957" transform="matrix(-0.7072 -0.7071 0.7071 -0.7072 331.1583 989.8716)" fill="#575C7A" width="4.8" height="4.801"/>
	
		<rect x="318.125" y="150.97" transform="matrix(-0.7072 -0.7071 0.7071 -0.7072 438.7465 488.4555)" fill="#575C7A" width="4.8" height="4.8"/>
	
		<rect x="984.469" y="171.973" transform="matrix(-0.7071 -0.7072 0.7072 -0.7071 1561.3315 995.5366)" fill="#575C7A" width="4.8" height="4.8"/>
	
		<rect x="421.581" y="252.721" transform="matrix(-0.7071 -0.7071 0.7071 -0.7071 543.3824 735.3176)" fill="#575C7A" width="4.799" height="4.8"/>
	
		<rect x="292.074" y="398.516" transform="matrix(-0.7072 -0.7071 0.7071 -0.7072 219.2441 892.6357)" display="none" fill="#575C7A" width="4.8" height="4.8"/>
	
		<rect x="243.877" y="307.587" transform="matrix(-0.7072 -0.7071 0.7071 -0.7072 201.2563 703.3282)" display="none" fill="#575C7A" width="4.8" height="4.8"/>
	
		<rect x="522.308" y="269.511" transform="matrix(-0.707 -0.7072 0.7072 -0.707 702.3932 832.8137)" fill="#575C7A" width="2.8" height="2.8"/>
	
		<rect x="8.289" y="371.296" transform="matrix(-0.7072 -0.707 0.707 -0.7072 -245.9574 645.5334)" fill="#575C7A" width="4.8" height="4.801"/>
	
		<rect x="308.687" y="411.603" transform="matrix(-0.7071 -0.7072 0.7072 -0.7071 238.2774 926.7136)" fill="#575C7A" width="4.8" height="4.8"/>
	
		<rect x="364.779" y="283.885" transform="matrix(-0.7071 -0.7072 0.7072 -0.7071 424.3457 748.3584)" fill="#575C7A" width="4.8" height="4.8"/>
	
		<rect x="322.437" y="281.293" transform="matrix(-0.707 -0.7072 0.7072 -0.707 353.0314 711.939)" fill="#575C7A" width="3.099" height="3.099"/>
	
		<rect x="137.775" y="386.312" transform="matrix(-0.7072 -0.707 0.707 -0.7072 -36.3752 760.6589)" fill="#575C7A" width="3.1" height="3.1"/>
	
		<rect x="116.074" y="251.487" transform="matrix(-0.7072 -0.707 0.707 -0.7072 21.902 515.1439)" fill="#575C7A" width="3.1" height="3.1"/>
	
		<rect x="189.449" y="441.797" transform="matrix(-0.7071 -0.7071 0.7071 -0.7071 12.562 891.8976)" fill="#575C7A" width="3.1" height="3.1"/>
	
		<rect x="175.73" y="354.929" transform="matrix(-0.1175 -0.9931 0.9931 -0.1175 -155.8996 574.4178)" fill="#575C7A" width="3.1" height="3.101"/>
	
		<rect x="1121.427" y="180.461" transform="matrix(-0.7072 -0.7071 0.7071 -0.7072 1789.257 1106.7817)" fill="#575C7A" width="4.8" height="4.8"/>
	
		<rect x="1064.448" y="129.75" transform="matrix(-0.7071 -0.7072 0.7072 -0.7071 1727.7178 980.0168)" fill="#575C7A" width="4.8" height="4.8"/>
	
		<rect x="413.569" y="168.637" transform="matrix(-0.7072 -0.7071 0.7071 -0.7072 589.1913 586.1009)" fill="#575C7A" width="4.8" height="4.801"/>
	
		<rect x="538.651" y="168.686" transform="matrix(-0.7072 -0.7071 0.7071 -0.7072 802.6917 674.6238)" fill="#575C7A" width="4.8" height="4.8"/>
	
		<rect x="144.786" y="340.774" transform="matrix(-0.707 -0.7072 0.7072 -0.707 7.8654 688.2062)" display="none" fill="#575C7A" width="3.399" height="3.399"/>
	
		<rect x="39.151" y="411.272" transform="matrix(-0.7071 -0.7072 0.7072 -0.7071 -221.6014 735.5431)" fill="#575C7A" width="4.8" height="4.8"/>
	
		<rect x="255.591" y="367.571" transform="matrix(-0.7072 -0.707 0.707 -0.7072 178.1544 812.3249)" fill="#575C7A" width="3.4" height="3.4"/>
	
		<rect x="363.935" y="304.768" transform="matrix(-0.7071 -0.7072 0.7072 -0.7071 408.1384 783.4086)" display="none" fill="#575C7A" width="4.8" height="4.8"/>
	
		<rect x="178.355" y="347.569" transform="matrix(-0.7071 -0.7071 0.7071 -0.7071 60.4019 723.5579)" display="none" fill="#575C7A" width="3.4" height="3.4"/>
	
		<rect x="608.156" y="385.428" transform="matrix(-0.7072 -0.7071 0.7071 -0.7072 768.099 1093.7799)" fill="#575C7A" width="4.8" height="4.8"/>
	
		<rect x="213.86" y="311.82" transform="matrix(-0.7071 -0.7071 0.7071 -0.7071 146.2927 687.6365)" display="none" fill="#575C7A" width="3.4" height="3.4"/>
	
		<rect x="381.539" y="358.587" transform="matrix(-0.7071 -0.7072 0.7072 -0.7071 400.1298 887.7297)" display="none" fill="#575C7A" width="4.8" height="4.8"/>
	
		<rect x="463.131" y="300.116" transform="matrix(-0.707 -0.7072 0.7072 -0.707 580.3531 844.6509)" fill="#575C7A" width="4" height="4"/>
	
		<rect x="404.833" y="199.2" transform="matrix(-0.7072 -0.7071 0.7071 -0.7072 552.6691 632.0999)" fill="#575C7A" width="4.8" height="4.8"/>
	
		<rect x="436.473" y="459.935" transform="matrix(-0.7071 -0.7071 0.7071 -0.7071 422.2826 1099.5861)" fill="#575C7A" width="4.801" height="4.8"/>
	
		<rect x="255.869" y="195.113" transform="matrix(-0.7071 -0.7071 0.7071 -0.7071 300.8305 518.8332)" fill="#575C7A" width="4" height="4"/>
	
		<rect x="204.46" y="288.916" transform="matrix(-0.7071 -0.7071 0.7071 -0.7071 146.4409 641.8897)" fill="#575C7A" width="3.4" height="3.4"/>
	
		<rect x="306.427" y="431.364" transform="matrix(-0.7071 -0.7071 0.7071 -0.7071 219.7828 957.1659)" fill="#575C7A" width="3.4" height="3.4"/>
	
		<rect x="277.765" y="313.236" transform="matrix(-0.7071 -0.7071 0.7071 -0.7071 254.3831 735.2405)" fill="#575C7A" width="3.4" height="3.4"/>
	
		<rect x="163.714" y="232.907" transform="matrix(-0.707 -0.7072 0.7072 -0.707 117.1457 519.1479)" fill="#575C7A" width="4.8" height="4.8"/>
	
		<rect x="729.152" y="414.916" transform="matrix(-0.7071 -0.7072 0.7072 -0.7071 953.6916 1229.7041)" fill="#575C7A" width="4.8" height="4.8"/>
	
		<rect x="723.631" y="246.847" transform="matrix(-0.7071 -0.7072 0.7072 -0.7071 1063.1189 938.8972)" fill="#575C7A" width="4.8" height="4.8"/>
	
		<rect x="132.917" y="314.193" transform="matrix(-0.7071 -0.7071 0.7071 -0.7071 6.436 634.4515)" fill="#575C7A" width="3.4" height="3.4"/>
	
		<rect x="570.292" y="220.577" transform="matrix(-0.7071 -0.7072 0.7072 -0.7071 819.9363 785.6174)" fill="#575C7A" width="4.8" height="4.8"/>
	
		<rect x="548.734" y="320.762" transform="matrix(-0.7072 -0.707 0.707 -0.7072 711.4098 938.9494)" fill="#575C7A" width="2.8" height="2.8"/>
	
		<rect x="77.619" y="352.794" transform="matrix(-0.7069 -0.7073 0.7073 -0.7069 -115.4771 660.8397)" fill="#575C7A" width="3.1" height="3.099"/>
	
		<rect x="1258.943" y="135.687" transform="matrix(-0.7071 -0.7072 0.7072 -0.7071 2055.5332 1127.6907)" fill="#575C7A" width="4.8" height="4.8"/>
	
		<rect x="905.35" y="348.216" transform="matrix(0.9282 0.3721 -0.3721 0.9282 195.2677 -312.3392)" fill="#575C7A" width="3.1" height="3.1"/>
	
		<rect x="978.248" y="463.63" transform="matrix(0.9283 0.3717 -0.3717 0.9283 243.1213 -330.8752)" fill="#575C7A" width="3.1" height="3.1"/>
	
		<rect x="835.928" y="317.536" transform="matrix(0.9281 0.3722 -0.3722 0.9281 178.9557 -288.8068)" fill="#575C7A" width="3.1" height="3.1"/>
	
		<rect x="882.607" y="391.782" transform="matrix(0.4984 0.8669 -0.8669 0.4984 784.4421 -569.217)" fill="#575C7A" width="3.099" height="3.1"/>
	
		<rect x="1168.202" y="357.809" transform="matrix(0.9281 0.3722 -0.3722 0.9281 217.8241 -409.5957)" fill="#575C7A" width="3.1" height="3.1"/>
	
		<rect x="1257.907" y="337.566" transform="matrix(0.9282 0.372 -0.372 0.9282 216.5289 -444.1672)" fill="#575C7A" width="3.1" height="3.1"/>
	
		<rect x="1216.048" y="371.004" transform="matrix(0.9282 0.3722 -0.3722 0.9282 226.1764 -426.4235)" fill="#575C7A" width="3.399" height="3.4"/>
	
		<rect x="803.804" y="411.709" transform="matrix(0.9282 0.3721 -0.3721 0.9282 211.6403 -270.016)" fill="#575C7A" width="3.4" height="3.4"/>
	
		<rect x="1086.859" y="421.779" transform="matrix(0.9283 0.3719 -0.3719 0.9283 235.6016 -374.4926)" fill="#575C7A" width="3.4" height="3.4"/>
	
		<rect x="1148.897" y="420.716" transform="matrix(0.9282 0.3721 -0.3721 0.9282 239.7662 -397.7646)" fill="#575C7A" width="3.4" height="3.4"/>
	
		<rect x="881.727" y="463.698" transform="matrix(0.9282 0.3722 -0.3722 0.9282 236.6791 -295.3619)" fill="#575C7A" width="3.401" height="3.4"/>
	
		<rect x="804.936" y="470.188" transform="matrix(0.9281 0.3723 -0.3723 0.9281 233.6564 -266.3766)" fill="#575C7A" width="3.4" height="3.399"/>
	
		<rect x="937.592" y="412.618" transform="matrix(0.9282 0.3721 -0.3721 0.9282 221.5836 -319.7278)" fill="#575C7A" width="3.4" height="3.4"/>
	
		<rect x="973.641" y="355.312" transform="matrix(0.9282 0.3721 -0.3721 0.9282 202.8119 -337.2405)" fill="#575C7A" width="3.1" height="3.1"/>
	
		<rect x="1214.659" y="356.077" transform="matrix(0.9282 0.372 -0.372 0.9282 220.3111 -426.7509)" fill="#575C7A" width="3.1" height="3.1"/>
	
		<rect x="1248.849" y="288.515" transform="matrix(0.9282 0.372 -0.372 0.9282 197.6324 -444.3177)" fill="#575C7A" width="3.1" height="3.1"/>
	
		<rect x="1145.297" y="238.784" transform="matrix(0.9917 0.1286 -0.1286 0.9917 40.5325 -145.5524)" fill="#575C7A" width="4.801" height="4.8"/>
	
		<rect x="821.107" y="205.583" transform="matrix(0.9917 0.1285 -0.1285 0.9917 33.5503 -104.0892)" fill="#575C7A" width="4.8" height="4.8"/>
	
		<rect x="784.208" y="276.182" transform="matrix(0.9917 0.1285 -0.1285 0.9917 42.3157 -98.7628)" fill="#575C7A" width="4.8" height="4.8"/>
	
		<rect x="674.908" y="311.682" transform="matrix(0.9917 0.1285 -0.1285 0.9917 45.9711 -84.4245)" fill="#575C7A" width="4.8" height="4.8"/>
	
		<rect x="968.505" y="280.583" transform="matrix(0.9917 0.1286 -0.1286 0.9917 44.4391 -122.4762)" fill="#575C7A" width="4.801" height="4.8"/>
	
		<rect x="836.207" y="270.681" transform="matrix(0.9917 0.1285 -0.1285 0.9917 42.04 -105.4897)" fill="#575C7A" width="4.8" height="4.8"/>
	
		<rect x="1160.205" y="268.382" transform="matrix(0.9917 0.1286 -0.1286 0.9917 44.4724 -147.2525)" fill="#575C7A" width="4.8" height="4.8"/>
	
		<rect x="628.103" y="203.084" transform="matrix(0.9917 0.1285 -0.1285 0.9917 31.6219 -79.295)" fill="#575C7A" width="4.801" height="4.8"/>
	
		<rect x="1043.299" y="276.084" transform="matrix(0.9917 0.1285 -0.1285 0.9917 44.4507 -132.0544)" fill="#575C7A" width="4.8" height="4.8"/>
	
		<rect x="852.107" y="255.982" transform="matrix(0.9917 0.1285 -0.1285 0.9917 40.2831 -107.6547)" fill="#575C7A" width="4.8" height="4.8"/>
	
		<rect x="1160.398" y="312.383" transform="matrix(0.9917 0.1285 -0.1285 0.9917 50.0856 -146.7997)" fill="#575C7A" width="4.8" height="4.8"/>
	
		<rect x="1080.536" y="338.763" transform="matrix(-0.7071 -0.7072 0.7072 -0.7071 1607.3757 1348.1897)" fill="#575C7A" width="4.8" height="4.8"/>
	
		<rect x="1025.128" y="366.194" transform="matrix(-0.7071 -0.7071 0.7071 -0.7071 1493.4648 1355.8024)" fill="#575C7A" width="4.801" height="4.8"/>
	
		<rect x="1178.479" y="449.781" transform="matrix(-0.7071 -0.7071 0.7071 -0.7071 1696.1456 1606.9298)" fill="#575C7A" width="4.801" height="4.801"/>
	
		<rect x="1211.847" y="217.293" transform="matrix(-0.7072 -0.707 0.707 -0.7072 1917.6489 1233.5404)" fill="#575C7A" width="4.8" height="4.801"/>
	
		<rect x="1196.419" y="291.695" transform="matrix(-0.707 -0.7072 0.7072 -0.707 1838.4047 1349.8359)" fill="#575C7A" width="4.8" height="4.8"/>
	
		<rect x="1033.168" y="159.02" transform="matrix(-0.7072 -0.707 0.707 -0.7072 1652.9279 1005.697)" fill="#575C7A" width="3.1" height="3.1"/>
	
		<rect x="1050.004" y="221.609" transform="matrix(-0.7071 -0.7071 0.7071 -0.7071 1637.4675 1124.8779)" fill="#575C7A" width="3.4" height="3.399"/>
	
		<rect x="994.824" y="260.498" transform="matrix(-0.7071 -0.7071 0.7071 -0.7071 1515.6212 1151.8861)" fill="#575C7A" width="3.1" height="3.1"/>
	
		<rect x="1100.533" y="12.448" transform="matrix(-0.7071 -0.7072 0.7072 -0.7071 1872.2679 805.293)" fill="#575C7A" width="4.8" height="4.8"/>
	
		<rect x="1045.042" y="39.821" transform="matrix(-0.7072 -0.7071 0.7071 -0.7072 1758.2966 812.6785)" fill="#575C7A" width="4.8" height="4.8"/>
	
		<rect x="1731.916" y="32.552" transform="matrix(-0.7072 -0.7071 0.7071 -0.7072 2936.0386 1285.9274)" fill="#575C7A" width="4.8" height="4.8"/>
	
		<rect x="1307.151" y="36.457" transform="matrix(-0.7071 -0.7071 0.7071 -0.7071 2208.0669 992.3256)" fill="#575C7A" width="4.801" height="4.8"/>
	
		<rect x="1241.04" y="10.973" transform="matrix(-0.7072 -0.7071 0.7071 -0.7072 2113.293 902.0126)" fill="#575C7A" width="4.8" height="4.8"/>
	
		<rect x="1474.615" y="20.306" transform="matrix(-0.1175 -0.9931 0.9931 -0.1175 1627.9088 1490.3636)" fill="#575C7A" width="3.1" height="3.101"/>
	
		<rect x="1554.678" y="32.59" transform="matrix(-0.707 -0.7073 0.7073 -0.707 2632.4272 1159.2808)" fill="#575C7A" width="3.399" height="3.4"/>
	
		<rect x="1376.718" y="18.085" transform="matrix(-0.7069 -0.7073 0.7073 -0.7069 2338.7461 1008.3145)" fill="#575C7A" width="3.1" height="3.099"/>
	
		<rect x="748.364" y="40.585" transform="matrix(-0.7071 -0.7071 0.7071 -0.7071 1251.2388 604.2498)" fill="#575C7A" width="4.799" height="4.8"/>
	
		<rect x="672.33" y="19.468" transform="matrix(-0.707 -0.7072 0.7072 -0.707 1136.3015 514.5031)" fill="#575C7A" width="4.8" height="4.8"/>
	
		<rect x="613.446" y="32.651" transform="matrix(-0.7072 -0.7071 0.7071 -0.7072 1026.5625 495.2754)" fill="#575C7A" width="4.8" height="4.8"/>
	
		<rect x="856.919" y="35.578" transform="matrix(-0.7071 -0.7071 0.7071 -0.7071 1439.2446 670.41)" fill="#575C7A" width="3.1" height="3.1"/>
	
		<rect x="1313.226" y="361.663" transform="matrix(-0.707 -0.7072 0.7072 -0.707 1988.3119 1551.8792)" fill="#575C7A" width="4.8" height="4.799"/>
	
		<rect x="1534.924" y="274.882" transform="matrix(-0.7071 -0.7071 0.7071 -0.7071 2428.3088 1560.4019)" fill="#575C7A" width="4.801" height="4.8"/>
	
		<rect x="1678.764" y="217.921" transform="matrix(-0.707 -0.7072 0.7072 -0.707 2713.6196 1563.9966)" fill="#575C7A" width="4" height="4"/>
	
		<rect x="1297.308" y="147.905" transform="matrix(-0.7071 -0.7071 0.7071 -0.7071 2111.7581 1173.9297)" fill="#575C7A" width="3.4" height="3.4"/>
	
		<rect x="1607.231" y="241.363" transform="matrix(-0.7071 -0.7071 0.7071 -0.7071 2575.4451 1554.3112)" fill="#575C7A" width="4.801" height="4.8"/>
	
		<rect x="1715.43" y="279.944" transform="matrix(-0.7071 -0.7071 0.7071 -0.7071 2732.8716 1696.6815)" fill="#575C7A" width="4.801" height="4.8"/>
	
		<rect x="1478.87" y="436.365" transform="matrix(-0.7072 -0.707 0.707 -0.7072 2218.627 1796.3279)" fill="#575C7A" width="4.8" height="4.8"/>
	
		<rect x="1328.615" y="133.305" transform="matrix(-0.7072 -0.7071 0.7071 -0.7072 2176.3022 1172.7732)" fill="#575C7A" width="4.8" height="4.8"/>
	
		<rect x="1562.667" y="213.996" transform="matrix(-0.7071 -0.7072 0.7072 -0.7071 2518.6299 1476.1478)" fill="#575C7A" width="4.8" height="4.8"/>
	
		<rect x="1505.734" y="163.806" transform="matrix(-0.707 -0.7072 0.7072 -0.707 2456.5193 1349.2587)" fill="#575C7A" width="4" height="4"/>
	
		<rect x="1345.923" y="166.877" transform="matrix(-0.7071 -0.7072 0.7072 -0.7071 2181.9578 1242.4418)" fill="#575C7A" width="4.8" height="4.8"/>
	
		<rect x="1425.768" y="289.653" transform="matrix(-0.7072 -0.7071 0.7071 -0.7072 2231.6099 1508.3755)" fill="#575C7A" width="4.8" height="4.8"/>
	
		<rect x="1424.667" y="188.607" transform="matrix(-0.7072 -0.7071 0.7071 -0.7072 2301.1763 1335.0959)" fill="#575C7A" width="4.8" height="4.8"/>
	
		<rect x="1571.357" y="130.093" transform="matrix(-0.7071 -0.7071 0.7071 -0.7071 2592.4839 1338.0271)" fill="#575C7A" width="4" height="4"/>
	
		<rect x="1695.432" y="134.042" transform="matrix(-0.7072 -0.7071 0.7071 -0.7072 2801.9949 1433.39)" fill="#575C7A" width="4.8" height="4.8"/>
	
		<rect x="1385.554" y="354.451" transform="matrix(-0.7072 -0.7071 0.7071 -0.7072 2117.1431 1590.5618)" fill="#575C7A" width="4.8" height="4.801"/>
	
		<rect x="1319.585" y="328.985" transform="matrix(-0.7071 -0.7071 0.7071 -0.7071 2022.4451 1500.4932)" fill="#575C7A" width="4.801" height="4.8"/>
	
		<rect x="1686.04" y="394.663" transform="matrix(-0.7072 -0.7071 0.7071 -0.7072 2601.688 1871.6697)" fill="#575C7A" width="4.8" height="4.8"/>
	
		<rect x="1699.968" y="264.424" transform="matrix(-0.7069 -0.7073 0.7073 -0.7069 2716.2908 1657.4255)" fill="#575C7A" width="3.1" height="3.099"/>
	
		<rect x="1515.235" y="369.513" transform="matrix(-0.7071 -0.7071 0.7071 -0.7071 2326.9329 1705.9736)" fill="#575C7A" width="3.1" height="3.1"/>
	
		<rect x="1493.535" y="234.688" transform="matrix(-0.7071 -0.7071 0.7071 -0.7071 2385.2236 1460.4691)" fill="#575C7A" width="3.1" height="3.1"/>
	
		<rect x="1566.91" y="424.998" transform="matrix(-0.7071 -0.7071 0.7071 -0.7071 2375.9133 1837.2322)" fill="#575C7A" width="3.1" height="3.1"/>
	
		<rect x="1553.169" y="338.314" transform="matrix(-0.1172 -0.9931 0.9931 -0.1172 1399.3622 1923.6958)" fill="#575C7A" width="3.1" height="3.1"/>
	
		<rect x="1416.728" y="394.314" transform="matrix(-0.7071 -0.7072 0.7072 -0.7071 2141.9912 1680.7604)" fill="#575C7A" width="4.8" height="4.8"/>
	
		<rect x="1633.051" y="350.772" transform="matrix(-0.7071 -0.7071 0.7071 -0.7071 2541.4595 1757.6499)" fill="#575C7A" width="3.4" height="3.4"/>
	
		<rect x="1376.88" y="229.896" transform="matrix(-0.7071 -0.7071 0.7071 -0.7071 2189.6206 1370.1619)" fill="#575C7A" width="3.4" height="3.4"/>
	
		<rect x="1319.461" y="206.662" transform="matrix(-0.707 -0.7072 0.7072 -0.707 2107.918 1289.9786)" fill="#575C7A" width="3.399" height="3.4"/>
	
		<rect x="1633.275" y="178.085" transform="matrix(-0.707 -0.7072 0.7072 -0.707 2664.1396 1463.8269)" fill="#575C7A" width="4" height="4"/>
	
		<rect x="1581.866" y="272.113" transform="matrix(-0.7071 -0.7071 0.7071 -0.7071 2509.7021 1587.1781)" fill="#575C7A" width="3.4" height="3.4"/>
	
		<rect x="1683.958" y="414.495" transform="matrix(-0.7071 -0.7071 0.7071 -0.7071 2583.3042 1902.4297)" fill="#575C7A" width="3.4" height="3.4"/>
	
		<rect x="1655.154" y="296.367" transform="matrix(-0.7072 -0.707 0.707 -0.7072 2617.8013 1680.3064)" fill="#575C7A" width="3.4" height="3.4"/>
	
		<rect x="1541.12" y="215.979" transform="matrix(-0.7072 -0.7071 0.7071 -0.7072 2480.6265 1464.1628)" fill="#575C7A" width="4.8" height="4.801"/>
	
		<rect x="1510.465" y="297.307" transform="matrix(-0.7071 -0.7071 0.7071 -0.7071 2369.9973 1579.6987)" fill="#575C7A" width="3.4" height="3.4"/>
	
		<rect x="1346.136" y="294.206" transform="matrix(-0.7071 -0.7072 0.7072 -0.7071 2092.2793 1459.9507)" fill="#575C7A" width="4.8" height="4.8"/>
	
		<rect x="1455.261" y="335.995" transform="matrix(-0.7072 -0.707 0.707 -0.7072 2248.3936 1606.2588)" fill="#575C7A" width="3.1" height="3.1"/>
	
		<rect x="1764.569" y="270.408" transform="matrix(-0.7072 -0.7071 0.7071 -0.7072 2823.6038 1715.072)" fill="#575C7A" width="4.8" height="4.8"/>
	
		<rect x="1739.021" y="301.075" transform="matrix(-0.707 -0.7073 0.7073 -0.707 2757.2095 1747.9509)" fill="#575C7A" width="3.399" height="3.4"/>
	
		<rect x="124.351" y="3.887" transform="matrix(-0.7071 -0.7071 0.7071 -0.7071 211.9321 100.3584)" fill="#575C7A" width="4.799" height="4.8"/>
	
		<rect x="304.826" y="9.185" transform="matrix(-0.7071 -0.7071 0.7071 -0.7071 516.2769 237.0183)" fill="#575C7A" width="4.801" height="4.8"/>
	
		<rect x="15.065" y="18.794" transform="matrix(-0.707 -0.7072 0.7072 -0.707 14.8241 48.5293)" fill="#575C7A" width="4.8" height="4.799"/>
	
		<rect x="142.426" y="67.396" transform="matrix(-0.1172 -0.9931 0.9931 -0.1172 92.3752 220.0093)" fill="#575C7A" width="3.1" height="3.1"/>
	
		<rect x="244.455" y="25.396" transform="matrix(-0.7071 -0.7071 0.7071 -0.7071 401.054 220.3129)" fill="#575C7A" width="3.4" height="3.4"/>
	
		<rect x="99.679" y="26.382" transform="matrix(-0.7072 -0.707 0.707 -0.7072 153.2171 119.6191)" fill="#575C7A" width="3.4" height="3.4"/>
	
		<rect x="44.446" y="65.182" transform="matrix(-0.7071 -0.7071 0.7071 -0.7071 31.3335 146.4431)" fill="#575C7A" width="3.1" height="3.1"/>
	
		<rect x="462.164" y="38.13" transform="matrix(-0.7071 -0.7071 0.7071 -0.7071 764.4022 397.6853)" fill="#575C7A" width="4.801" height="4.8"/>
	
		<rect x="488.724" y="24.99" transform="matrix(-0.7072 -0.7071 0.7071 -0.7072 819.0598 394.0114)" fill="#575C7A" width="4.8" height="4.8"/>
	
		<rect x="446.465" y="22.497" transform="matrix(-0.7072 -0.707 0.707 -0.7072 747.8422 357.8118)" fill="#575C7A" width="3.1" height="3.1"/>
	
		<rect x="328.459" y="30.174" transform="matrix(-0.7071 -0.7071 0.7071 -0.7071 541.0785 287.8706)" fill="#575C7A" width="3.4" height="3.4"/>
	
		<rect x="401.664" y="54.494" transform="matrix(-0.7072 -0.707 0.707 -0.7072 648.8837 381.126)" fill="#575C7A" width="3.4" height="3.4"/>
	
		<rect x="565.225" y="69.488" transform="matrix(-0.707 -0.7072 0.7072 -0.707 917.1088 521.72)" fill="#575C7A" width="2.8" height="2.799"/>
	
		<rect x="567.779" y="123.678" transform="matrix(-0.7071 -0.7072 0.7072 -0.7071 884.1702 618.4278)" fill="#575C7A" width="4.8" height="4.8"/>
	
		<rect x="491.745" y="102.461" transform="matrix(-0.707 -0.7072 0.7072 -0.707 769.3486 528.4616)" fill="#575C7A" width="4.8" height="4.8"/>
	
		<rect x="433.032" y="115.715" transform="matrix(-0.7072 -0.7071 0.7071 -0.7072 659.8367 509.515)" fill="#575C7A" width="4.8" height="4.8"/>
	
		<rect x="745.619" y="88.883" transform="matrix(-0.7071 -0.7071 0.7071 -0.7071 1212.4023 684.7595)" fill="#575C7A" width="4.801" height="4.8"/>
	
		<rect x="8.15" y="119.779" transform="matrix(-0.7071 -0.7072 0.7072 -0.7071 -68.3908 216.0271)" fill="#575C7A" width="4.8" height="4.8"/>
	
		<rect x="137.636" y="134.596" transform="matrix(-0.7069 -0.7073 0.7073 -0.7069 141.292 330.834)" fill="#575C7A" width="3.1" height="3.099"/>
	
		<rect x="175.685" y="103.451" transform="matrix(-0.1175 -0.9931 0.9931 -0.1175 93.7867 293.3451)" fill="#575C7A" width="3.1" height="3.1"/>
	
		<rect x="255.539" y="115.783" transform="matrix(-0.7072 -0.707 0.707 -0.7072 356.0887 382.4419)" fill="#575C7A" width="3.4" height="3.4"/>
	
		<rect x="608.116" y="133.811" transform="matrix(-0.7071 -0.7071 0.7071 -0.7071 945.9015 664.2266)" fill="#575C7A" width="4.801" height="4.8"/>
	
		<rect x="548.766" y="69.175" transform="matrix(-0.707 -0.7072 0.7072 -0.707 889.2332 509.5465)" fill="#575C7A" width="2.8" height="2.8"/>
	
		<rect x="77.72" y="101.194" transform="matrix(-0.7072 -0.707 0.707 -0.7072 62.6865 231.4498)" fill="#575C7A" width="3.1" height="3.1"/>
	
		<rect x="905.344" y="96.501" transform="matrix(0.9282 0.3721 -0.3721 0.9282 101.605 -330.4117)" fill="#575C7A" width="3.1" height="3.1"/>
	
		<rect x="882.578" y="140.243" transform="matrix(0.4984 0.867 -0.867 0.4984 566.4282 -695.3776)" fill="#575C7A" width="3.1" height="3.1"/>
	
		<rect x="1168.351" y="106.009" transform="matrix(0.9282 0.3721 -0.3721 0.9282 124.0439 -427.6232)" fill="#575C7A" width="3.101" height="3.1"/>
	
		<rect x="1258.129" y="85.836" transform="matrix(0.9282 0.3721 -0.3721 0.9282 122.9686 -462.4478)" fill="#575C7A" width="3.1" height="3.1"/>
	
		<rect x="1215.904" y="119.513" transform="matrix(0.9282 0.3721 -0.3721 0.9282 132.5111 -444.3187)" fill="#575C7A" width="3.4" height="3.4"/>
	
		<rect x="973.497" y="103.821" transform="matrix(0.9281 0.3722 -0.3722 0.9281 109.2897 -355.3719)" fill="#575C7A" width="3.1" height="3.1"/>
	
		<rect x="1214.641" y="104.39" transform="matrix(0.9281 0.3722 -0.3722 0.9281 126.8306 -445.0928)" fill="#575C7A" width="3.1" height="3.1"/>
	
		<rect x="1080.625" y="87.092" transform="matrix(-0.707 -0.7072 0.7072 -0.707 1785.4407 918.6875)" fill="#575C7A" width="4.8" height="4.799"/>
	
		<rect x="1025.018" y="114.59" transform="matrix(-0.7071 -0.7071 0.7071 -0.7071 1671.1877 926.2086)" fill="#575C7A" width="4.801" height="4.8"/>
	
		<rect x="1313.358" y="109.976" transform="matrix(-0.7071 -0.7072 0.7072 -0.7071 2166.6045 1122.2808)" fill="#575C7A" width="4.8" height="4.8"/>
	
		<rect x="1385.657" y="102.751" transform="matrix(-0.7071 -0.7072 0.7072 -0.7071 2295.1318 1161.0734)" fill="#575C7A" width="4.8" height="4.8"/>
	
		<rect x="1319.545" y="77.368" transform="matrix(-0.7072 -0.7071 0.7071 -0.7072 2200.3687 1070.8655)" fill="#575C7A" width="4.8" height="4.801"/>
	
		<rect x="1686.113" y="143.075" transform="matrix(-0.7071 -0.7072 0.7072 -0.7071 2779.5117 1442.3788)" fill="#575C7A" width="4.8" height="4.8"/>
	
		<rect x="1515.255" y="117.672" transform="matrix(-0.707 -0.7072 0.7072 -0.707 2504.916 1276.1779)" fill="#575C7A" width="3.099" height="3.099"/>
	
		<rect x="1553.065" y="86.51" transform="matrix(-0.1172 -0.9931 0.9931 -0.1172 1649.345 1642.2831)" fill="#575C7A" width="3.1" height="3.1"/>
	
		<rect x="1416.658" y="142.726" transform="matrix(-0.7072 -0.7071 0.7071 -0.7072 2319.9443 1251.1074)" fill="#575C7A" width="4.8" height="4.8"/>
	
		<rect x="1633.142" y="99.001" transform="matrix(-0.707 -0.7072 0.7072 -0.707 2719.5186 1328.0251)" fill="#575C7A" width="3.399" height="3.399"/>
	
		<rect x="1455.251" y="84.325" transform="matrix(-0.7072 -0.707 0.707 -0.7072 2426.313 1176.604)" fill="#575C7A" width="3.1" height="3.1"/>
</g>
<linearGradient id="SVGID_3_" gradientUnits="userSpaceOnUse" x1="721.8711" y1="992.5996" x2="924.5339" y2="995.6901" gradientTransform="matrix(0.999 0.0438 -0.0438 0.999 44.4651 -963.923)">
	<stop  offset="0" style="stop-color:#F2FAFE"/>
	<stop  offset="0.2092" style="stop-color:#F3C187"/>
	<stop  offset="0.4322" style="stop-color:#EB8D80"/>
	<stop  offset="0.4645" style="stop-color:#C77E75"/>
	<stop  offset="0.5125" style="stop-color:#996B66"/>
	<stop  offset="0.5623" style="stop-color:#705A59"/>
	<stop  offset="0.613" style="stop-color:#504C4E"/>
	<stop  offset="0.665" style="stop-color:#364146"/>
	<stop  offset="0.7187" style="stop-color:#243A41"/>
	<stop  offset="0.7754" style="stop-color:#19353D"/>
	<stop  offset="0.8399" style="stop-color:#16343C"/>
</linearGradient>
<path fill="url(#SVGID_3_)" d="M735.163,56.9c-3.801-0.2-7.601-0.3-11.4-0.5l-1.9,1l1.7,1.1c8.6,0.3,17.3,0.6,26.1,1
	c73,3.2,137.7,9.2,177.601,15.5C889.862,67.5,817.963,60.5,735.163,56.9z"/>
<linearGradient id="SVGID_4_" gradientUnits="userSpaceOnUse" x1="13.333" y1="126.5396" x2="621.6771" y2="103.8079" gradientTransform="matrix(1 0 0 -1 0.04 849.2148)">
	<stop  offset="0" style="stop-color:#404F58"/>
	<stop  offset="0.3424" style="stop-color:#41535D"/>
	<stop  offset="0.8823" style="stop-color:#445E6D"/>
	<stop  offset="1" style="stop-color:#456171"/>
</linearGradient>
<polygon fill="url(#SVGID_4_)" points="630.563,742.7 630.163,742.4 623.163,741.2 614.163,736.5 612.063,735.7 622.563,735 
	626.763,732.7 635.862,733.4 661.463,727.7 644.263,727.7 636.362,727.7 618.063,726.1 612.463,726.8 606.563,726.1 588.563,727.4 
	565.362,722.8 541.663,723.5 533.063,725.7 516.263,723.8 509.663,721.2 493.063,723 478.862,723.2 465.362,720.6 442.963,720.6 
	421.963,720.6 410.563,715.2 381.362,715.2 343.563,715.2 330.463,708.2 284.663,715.8 249.163,708.7 150.862,711.4 95.563,696.4 
	56.263,698.8 -0.537,693.8 -2.638,692.8 -2.638,744.5 149.163,744.5 214.563,750.2 256.362,761.1 378.663,754.7 429.063,762.7 
	480.563,761.1 525.663,763.5 510.463,757.2 527.663,750.8 534.563,752.7 541.063,749.8 565.563,748.7 570.063,747.8 604.362,747.4 
	626.063,747.4 628.263,747.4 630.563,747 640.763,746.2 637.263,744.7 "/>
<linearGradient id="SVGID_5_" gradientUnits="userSpaceOnUse" x1="454.6401" y1="396.8228" x2="349.3801" y2="136.5966" gradientTransform="matrix(1 0 0 -1 0.04 849.2148)">
	<stop  offset="0.1139" style="stop-color:#334D5A"/>
	<stop  offset="1" style="stop-color:#384A56"/>
</linearGradient>
<polygon fill="url(#SVGID_5_)" points="667.663,769.4 638.163,764.7 597.663,762.2 570.563,755.2 549.263,753.2 500.862,757.4 
	429.362,742.8 360.763,749.8 300.362,741.2 247.862,743.5 205.263,739.1 191.263,731.2 146.263,727.7 110.063,727.7 103.362,731.7 
	78.763,725.2 57.463,723.4 9.063,727.5 -2.638,722.5 -2.638,792.6 11.763,784.7 28.463,786.7 34.963,815.2 78.563,815 
	159.362,813.2 257.063,814.7 389.063,814.2 435.163,814.7 472.963,795.6 510.362,797.2 550.763,787.2 568.463,778.8 602.063,774.7 
	649.862,775.5 673.663,771.5 "/>
<linearGradient id="SVGID_6_" gradientUnits="userSpaceOnUse" x1="1032.9219" y1="67.5981" x2="212.2556" y2="22.7719" gradientTransform="matrix(1 0 0 -1 0.04 849.2148)">
	<stop  offset="4.998519e-004" style="stop-color:#303D44"/>
	<stop  offset="0.5639" style="stop-color:#34424A"/>
	<stop  offset="0.9715" style="stop-color:#223239"/>
</linearGradient>
<polygon fill="url(#SVGID_6_)" points="512.763,831.4 473.263,816.8 438.862,818.7 403.263,802.5 342.862,791.2 287.663,780.6 
	223.063,781.2 130.663,768.8 97.563,771.4 97.563,771.2 -2.638,763.4 -2.638,899.3 86.463,899.3 94.663,899.3 126.763,899.3 
	147.163,899.3 168.463,899.3 213.063,899.3 254.862,898.9 354.663,882.2 400.263,879 441.563,871 472.763,857.8 499.862,855.2 
	513.763,856.5 547.163,854.5 576.963,850 "/>
<polygon opacity="0.1" fill="#FFFFFF" enable-background="new    " points="627.862,643.2 620.763,639.2 -2.638,639.2 -2.638,655.1 
	408.263,655.1 418.663,649.2 418.163,647.2 620.763,647.2 "/>
<polygon opacity="0.1" fill="#FFFFFF" enable-background="new    " points="523.862,666 -2.638,666 -2.638,674.5 523.862,674.5 
	531.362,670.2 "/>
<g>
	<g>
		<defs>
			<rect id="SVGID_7_" x="-2.638" y="-2" width="1780.001" height="850"/>
		</defs>
		<clipPath id="SVGID_8_">
			<use xlink:href="#SVGID_7_"  overflow="visible"/>
		</clipPath>
	</g>
</g>
</svg>
